<?xml version="1.0" encoding="UTF-8"?>
<svg id="Layer_1" data-name="Layer 1" xmlns="http://www.w3.org/2000/svg" viewBox="0 0 64 64">
  <path d="M33.573,54.232c18.229-8.549,27.826-23.87,26.28-33.631-1.084-6.847-6.664-11.632-13.57-11.636h-.008c-6.155,0-11.137,3.886-13.326,10.396-.008,.025-.025,.044-.036,.068-.007,.017-.005,.035-.013,.051l-3.773,7.744,7.727,6.608c.399,.342,.466,.935,.152,1.357l-5.582,7.501,3.849,3.945c.252,.259,.346,.633,.244,.98l-1.943,6.617Z"/>
  <path d="M31.362,54.657l2.069-7.043-4.036-4.137c-.343-.352-.38-.901-.087-1.295l5.533-7.436-7.604-6.503c-.346-.296-.448-.788-.249-1.198l3.924-8.055c-2.253-6.282-7.153-10.024-13.188-10.024h-.008c-6.906,.004-12.486,4.789-13.57,11.636-1.572,9.927,8.382,25.599,27.215,34.056Z"/>
</svg>