<?xml version="1.0" encoding="utf-8"?>
<!-- Generator: Adobe Illustrator 26.0.3, SVG Export Plug-In . SVG Version: 6.00 Build 0)  -->
<svg version="1.1" id="outline" xmlns="http://www.w3.org/2000/svg" xmlns:xlink="http://www.w3.org/1999/xlink" x="0px" y="0px"
	 viewBox="0 0 512 512" enable-background="new 0 0 512 512" xml:space="preserve">
<path d="M330.195,219.566C322.027,207.314,308.359,200,293.635,200c-11.737,0-22.771,4.571-31.071,12.87L256,219.434l-6.563-6.564
	c-8.3-8.299-19.334-12.87-31.071-12.87c-14.725,0-28.393,7.314-36.561,19.567c-9.106,13.66-7.29,32,4.318,43.608l64.22,64.22
	c1.501,1.5,3.535,2.343,5.657,2.343s4.156-0.843,5.657-2.343l64.22-64.22C337.483,251.567,339.302,233.226,330.195,219.566z
	 M314.563,251.861C314.562,251.862,314.562,251.862,314.563,251.861L256,310.425l-58.563-58.563
	c-6.234-6.234-7.21-16.083-2.319-23.419c5.194-7.791,13.885-12.442,23.248-12.442c7.463,0,14.479,2.906,19.757,8.184l12.221,12.221
	c3.125,3.124,8.189,3.124,11.314,0l12.221-12.221c5.277-5.277,12.294-8.184,19.757-8.184c9.363,0,18.054,4.651,23.248,12.442
	C321.773,235.778,320.798,245.627,314.563,251.861z"/>
<path d="M142.316,323.445c0.783,3.779,4.112,6.378,7.826,6.378c0.537,0,1.083-0.054,1.631-0.168c4.326-0.896,7.107-5.13,6.211-9.457
	l-1.623-7.834c-0.896-4.325-5.125-7.113-9.457-6.21c-4.326,0.896-7.107,5.13-6.211,9.457L142.316,323.445z"/>
<path d="M335.896,447.163c2.724,0.563,5.443,0.835,8.122,0.835c9.895,0,19.257-3.703,26.436-10.019l20.278,4.199
	c2.408,0.499,4.829,0.745,7.232,0.745c6.815,0,13.488-1.981,19.316-5.81c7.885-5.179,13.279-13.118,15.192-22.355l14.878-71.848
	c1.912-9.237,0.113-18.666-5.065-26.549c-3.771-5.739-9.008-10.151-15.139-12.869l4.462-32.299
	c10.221-73.977-27.396-146.889-93.606-181.433c-51.346-26.789-112.658-26.789-164.004,0
	c-66.21,34.544-103.827,107.456-93.606,181.433l4.462,32.299c-6.131,2.718-11.368,7.13-15.139,12.869
	c-5.179,7.884-6.978,17.312-5.065,26.549l14.878,71.848c1.913,9.237,7.308,17.176,15.192,22.355
	c5.829,3.829,12.501,5.81,19.316,5.81c2.402,0,4.825-0.247,7.232-0.745l20.277-4.198c7.178,6.316,16.541,10.018,26.437,10.018
	c2.679,0,5.398-0.271,8.122-0.835c21.598-4.472,35.53-25.682,31.059-47.28l-19.466-94.006c-2.167-10.462-8.278-19.455-17.208-25.321
	c-8.93-5.865-19.607-7.902-30.072-5.737c-2.627,0.544-5.138,1.34-7.519,2.349l-1.967-16.715
	c-6.179-52.522,21.45-103.7,68.751-127.35c35.264-17.632,77.371-17.632,112.635,0c47.301,23.65,74.93,74.828,68.751,127.35
	l-1.967,16.715c-2.381-1.01-4.892-1.806-7.519-2.349c-10.462-2.168-21.143-0.129-30.072,5.737s-15.041,14.859-17.208,25.321
	l-19.466,94.006C300.365,421.481,314.298,442.69,335.896,447.163z M428.912,325.146c2.833,4.312,3.816,9.468,2.771,14.52
	l-14.878,71.848c-1.046,5.052-3.996,9.394-8.308,12.226c-4.312,2.833-9.471,3.817-14.521,2.77l-13.219-2.737
	c1.041-2.426,1.863-4.986,2.419-7.669l19.466-94.006c0.555-2.682,0.825-5.358,0.834-7.997l10.159,2.104
	C414.176,316.412,426.104,320.871,428.912,325.146z M118.024,426.51c-5.053,1.048-10.209,0.062-14.521-2.77
	c-4.312-2.832-7.262-7.174-8.308-12.226l-14.878-71.848c-1.046-5.052-0.062-10.208,2.771-14.52
	c2.832-4.312,7.175-7.263,12.226-8.309l13.211-2.736c0.008,2.639,0.279,5.315,0.834,7.997l19.466,94.006
	c0.556,2.683,1.378,5.243,2.418,7.668L118.024,426.51z M143.661,290.487c1.637-0.339,3.282-0.507,4.916-0.507
	c4.631,0,9.166,1.347,13.127,3.949c5.358,3.52,9.025,8.915,10.325,15.192l19.466,94.006c2.114,10.212-2.632,20.276-11.08,25.398
	l-17.564-84.824c-0.896-4.327-5.129-7.112-9.456-6.212c-4.326,0.896-7.107,5.13-6.212,9.456l17.565,84.827
	c-9.788-1.344-18.141-8.7-20.256-18.912l-19.466-94.006C122.344,305.896,130.703,293.17,143.661,290.487z M319.474,118.792
	c-39.746-19.873-87.201-19.873-126.947,0c-53.31,26.655-84.449,84.335-77.485,143.53l3.032,25.774
	c-2.286,2.695-4.217,5.676-5.726,8.874l-11.902,2.465l-4.204-30.431c-9.299-67.3,24.924-133.631,85.157-165.058
	c46.713-24.372,102.49-24.372,149.203,0c60.233,31.426,94.456,97.758,85.157,165.058l-4.204,30.432l-11.902-2.465
	c-1.509-3.197-3.44-6.179-5.726-8.874l3.032-25.774C403.923,203.128,372.783,145.447,319.474,118.792z M320.505,403.127
	l19.466-94.005c1.3-6.278,4.967-11.673,10.325-15.193c3.961-2.602,8.495-3.949,13.127-3.949c1.634,0,3.279,0.168,4.916,0.507
	c12.958,2.683,21.317,15.409,18.635,28.368l-19.466,94.005c-2.115,10.212-10.467,17.566-20.255,18.911l17.565-84.825
	c0.896-4.326-1.886-8.56-6.212-9.456c-4.322-0.896-8.56,1.886-9.456,6.212l-17.564,84.824
	C323.137,423.403,318.391,413.339,320.505,403.127z"/>
<path d="M360.227,329.655c0.548,0.114,1.093,0.168,1.631,0.168c3.713,0,7.043-2.6,7.826-6.378l1.623-7.834
	c0.896-4.327-1.885-8.561-6.211-9.457c-4.325-0.9-8.561,1.884-9.457,6.21l-1.623,7.834
	C353.119,324.525,355.9,328.759,360.227,329.655z"/>
</svg>
