<?xml version="1.0" encoding="utf-8"?>
<!-- Generator: Adobe Illustrator 26.0.3, SVG Export Plug-In . SVG Version: 6.00 Build 0)  -->
<svg version="1.1" id="solid" xmlns="http://www.w3.org/2000/svg" xmlns:xlink="http://www.w3.org/1999/xlink" x="0px" y="0px"
	 viewBox="0 0 512 512" enable-background="new 0 0 512 512" xml:space="preserve">
<path d="M142.316,323.445c0.783,3.779,4.112,6.378,7.826,6.378c0.537,0,1.083-0.054,1.631-0.168c4.326-0.896,7.107-5.13,6.211-9.457
	l-1.623-7.834c-0.896-4.325-5.125-7.113-9.457-6.21c-4.326,0.896-7.107,5.13-6.211,9.457L142.316,323.445z"/>
<path d="M428.912,325.146c2.833,4.312,3.816,9.468,2.771,14.52l-14.878,71.848c-1.046,5.052-3.996,9.394-8.308,12.226
	c-4.312,2.833-9.471,3.817-14.521,2.77l-13.219-2.737c1.041-2.426,1.863-4.986,2.419-7.669l19.466-94.006
	c0.555-2.682,0.825-5.358,0.834-7.997l10.159,2.104C414.176,316.412,426.104,320.871,428.912,325.146z M118.024,426.51
	c-5.053,1.048-10.209,0.062-14.521-2.77c-4.312-2.832-7.262-7.174-8.308-12.226l-14.878-71.848
	c-1.046-5.052-0.062-10.208,2.771-14.52c2.832-4.312,7.175-7.263,12.226-8.309l13.211-2.736c0.008,2.639,0.279,5.315,0.834,7.997
	l19.466,94.006c0.556,2.683,1.378,5.243,2.418,7.668L118.024,426.51z M143.661,290.487c1.637-0.339,3.282-0.507,4.916-0.507
	c4.631,0,9.166,1.347,13.127,3.949c5.358,3.52,9.025,8.915,10.325,15.192l19.466,94.006c2.114,10.212-2.632,20.276-11.08,25.398
	l-17.564-84.824c-0.896-4.327-5.129-7.112-9.456-6.212c-4.326,0.896-7.107,5.13-6.212,9.456l17.565,84.827
	c-9.788-1.344-18.141-8.7-20.256-18.912l-19.466-94.006C122.344,305.896,130.703,293.17,143.661,290.487z M319.474,118.792
	c-39.746-19.873-87.201-19.873-126.947,0c-53.31,26.655-84.449,84.335-77.485,143.53l3.032,25.774
	c-2.286,2.695-4.217,5.676-5.726,8.874l-11.902,2.465l-4.204-30.431c-9.299-67.3,24.924-133.631,85.157-165.058
	c46.713-24.372,102.49-24.372,149.203,0c60.233,31.426,94.456,97.758,85.157,165.058l-4.204,30.432l-11.902-2.465
	c-1.509-3.197-3.44-6.179-5.726-8.874l3.032-25.774C403.923,203.128,372.783,145.447,319.474,118.792z M320.505,403.127
	l19.466-94.005c1.3-6.278,4.967-11.673,10.325-15.193c3.961-2.602,8.495-3.949,13.127-3.949c1.634,0,3.279,0.168,4.916,0.507
	c12.958,2.683,21.317,15.409,18.635,28.368l-19.466,94.005c-2.115,10.212-10.467,17.566-20.255,18.911l17.565-84.825
	c0.896-4.326-1.886-8.56-6.212-9.456c-4.322-0.896-8.56,1.886-9.456,6.212l-17.564,84.824
	C323.137,423.403,318.391,413.339,320.505,403.127z"/>
<path d="M360.227,329.655c0.548,0.114,1.093,0.168,1.631,0.168c3.713,0,7.043-2.6,7.826-6.378l1.623-7.834
	c0.896-4.327-1.885-8.561-6.211-9.457c-4.325-0.9-8.561,1.884-9.457,6.21l-1.623,7.834
	C353.119,324.525,355.9,328.759,360.227,329.655z"/>
<path d="M320.22,257.518L256,321.739l-64.22-64.22c-8.953-8.953-10.342-22.98-3.319-33.514l0,0
	c6.666-9.999,17.887-16.004,29.904-16.004h0c9.532,0,18.673,3.787,25.414,10.527L256,230.748l12.221-12.221
	c6.74-6.74,15.882-10.527,25.414-10.527h0c12.017,0,23.238,6.006,29.904,16.004l0,0C330.562,234.539,329.173,248.566,320.22,257.518
	z"/>
</svg>
