<svg xmlns="http://www.w3.org/2000/svg" width="24" height="24" viewBox="0 0 364 364">
  <path 
    fill="#FFFFFF" 
    fill-rule="evenodd"
    d="M 166.00,0.21 C 166.00,0.21 190.00,0.21 190.00,0.21 207.82,0.03 230.30,5.50 247.00,11.68 264.44,18.13 282.59,28.54 297.00,40.26 311.91,52.39 324.90,66.84 335.31,83.00 379.12,151.02 372.36,239.42 320.41,301.00 307.80,315.94 289.24,331.34 272.00,340.69 248.12,353.64 217.40,363.96 190.00,364.00 190.00,364.00 172.00,364.00 172.00,364.00 164.32,363.91 152.66,361.94 145.00,360.40 86.66,348.66 37.82,308.72 14.43,254.00 6.74,236.03 0.03,209.55 0.00,190.00 0.00,190.00 0.00,173.00 0.00,173.00 0.04,165.07 1.83,153.86 3.40,146.00 13.56,95.22 44.85,50.27 90.00,24.43 116.80,9.08 136.05,4.70 166.00,0.21 Z M 296.00,200.00 C 296.00,200.00 299.00,170.00 299.00,170.00 299.00,170.00 299.00,156.00 299.00,156.00 298.97,134.46 288.99,109.05 276.10,92.00 233.78,36.00 153.79,29.38 102.00,76.17 92.19,85.03 83.32,97.25 77.26,109.00 69.13,124.76 66.51,137.62 64.83,155.00 64.43,159.11 63.86,160.43 64.04,165.00 64.04,165.00 68.00,201.00 68.00,201.00 72.93,199.69 77.58,199.54 79.61,193.98 81.10,189.88 78.01,171.37 78.00,165.00 77.98,152.62 78.78,142.93 82.67,131.00 94.54,94.59 124.48,67.53 162.00,59.66 171.12,57.75 178.79,57.90 188.00,58.00 196.63,58.10 205.83,60.30 214.00,63.00 248.37,74.36 272.08,100.62 282.28,135.00 285.17,144.73 286.05,154.90 286.00,165.00 286.00,165.00 283.90,193.00 283.90,193.00 285.76,199.23 290.38,199.87 296.00,200.00 Z M 182.00,217.00 C 182.00,217.00 220.00,179.00 220.00,179.00 227.33,171.70 234.38,167.46 233.96,156.00 233.30,137.98 211.60,130.02 197.00,137.67 189.99,141.35 185.86,148.96 182.00,148.96 179.19,148.96 173.51,142.47 171.00,140.48 165.03,135.74 160.42,134.83 153.00,135.01 140.08,135.33 129.46,144.62 130.04,158.00 130.19,161.45 130.80,164.00 132.61,166.99 132.61,166.99 156.29,192.09 156.29,192.09 161.84,198.04 176.00,212.71 182.00,217.00 Z M 127.00,295.00 C 138.19,286.52 134.79,277.60 132.12,266.00 132.12,266.00 120.57,210.00 120.57,210.00 118.67,201.85 113.92,195.51 105.00,195.04 95.51,194.55 87.98,199.14 86.33,209.00 85.48,214.09 89.76,232.07 91.12,238.00 91.12,238.00 100.57,284.00 100.57,284.00 102.85,291.38 106.51,295.08 114.00,297.00 114.00,297.00 104.40,247.00 104.40,247.00 103.35,241.73 99.66,231.82 107.02,229.52 113.80,227.39 115.15,238.75 116.00,243.00 116.00,243.00 127.00,295.00 127.00,295.00 Z M 249.00,297.00 C 255.24,295.96 259.89,293.20 262.16,287.00 262.16,287.00 272.42,239.00 272.42,239.00 273.75,232.98 278.13,215.12 277.52,210.00 276.29,199.64 269.11,194.51 259.00,195.04 250.09,195.51 245.18,201.84 243.24,210.00 243.24,210.00 231.58,266.00 231.58,266.00 229.04,277.54 225.92,286.60 237.00,295.00 237.00,295.00 247.80,243.00 247.80,243.00 248.67,238.74 250.34,227.44 256.98,229.52 264.31,231.81 260.63,240.86 259.60,246.00 259.60,246.00 249.00,297.00 249.00,297.00 Z M 74.00,212.00 C 68.99,212.94 62.04,213.89 58.21,217.39 55.28,220.08 54.25,223.14 54.04,227.00 53.70,233.60 59.01,256.03 60.60,264.00 62.13,271.64 63.74,286.63 70.10,291.30 76.16,295.75 83.37,293.25 90.00,292.00 90.00,292.00 78.60,238.00 78.60,238.00 78.60,238.00 74.00,212.00 74.00,212.00 Z M 274.00,292.00 C 280.63,293.25 287.84,295.75 293.90,291.30 300.12,286.73 301.71,271.46 303.20,264.00 303.20,264.00 309.20,235.00 309.20,235.00 310.05,230.48 310.86,224.30 307.99,220.33 304.40,215.35 295.74,213.08 290.00,212.00 290.00,212.00 285.40,237.00 285.40,237.00 285.40,237.00 274.00,292.00 274.00,292.00 Z"
  />
</svg>
