<svg id="Icons" xmlns="http://www.w3.org/2000/svg" viewBox="0 0 60 60"><path d="M9.909,37.832c.7-1.139,2.785-4.968,1-7.654a2.623,2.623,0,0,0-1.574-1.115,2.173,2.173,0,0,0-1.718.291,2.265,2.265,0,0,0-.954,2.05,1,1,0,0,1-1.439.957A2.45,2.45,0,0,0,4.14,32.1a2.128,2.128,0,0,0-1.181.351,2.412,2.412,0,0,0-.5,3.359C4.251,38.5,8.587,38.044,9.909,37.832Z"/><path d="M17.743,2.518a4.486,4.486,0,0,0-3.606-.255A4.7,4.7,0,0,0,11.2,5.9a1,1,0,0,1-1.623.588A4.842,4.842,0,0,0,6.488,5.323a4.282,4.282,0,0,0-1.471.259A4.938,4.938,0,0,0,2.331,12C4.5,17.956,13.1,18.853,15.041,18.98c1.408-1.345,7.424-7.554,5.251-13.527A5.286,5.286,0,0,0,17.743,2.518Z"/><path d="M20,27.542V47.581a1,1,0,0,1-1.377.927A6.91,6.91,0,0,0,16,48c-3.309,0-6,2.242-6,5s2.691,5,6,5,6-2.243,6-5V34.432a2,2,0,0,1,1.771-1.984l16-1.849A1.992,1.992,0,0,1,42,32.582v12a1,1,0,0,1-1.377.927A6.91,6.91,0,0,0,38,45c-3.309,0-6,2.243-6,5s2.691,5,6,5,6-2.242,6-5V25a.986.986,0,0,0-.33-.744,1,1,0,0,0-.792-.252L20.884,26.545A1.006,1.006,0,0,0,20,27.542Z"/><path d="M57.685,36.405a1.647,1.647,0,0,0-.33-2.293,1.529,1.529,0,0,0-1.528-.055,1,1,0,0,1-1.438-.957,1.532,1.532,0,0,0-.643-1.391,1.447,1.447,0,0,0-1.151-.191,1.8,1.8,0,0,0-1.085.77c-1.272,1.909.155,4.655.722,5.6C53.325,38.051,56.408,38.315,57.685,36.405Z"/><path d="M45.321,8.685C43.86,12.7,47.8,16.893,48.916,17.978c1.555-.116,7.271-.813,8.726-4.8A3.251,3.251,0,0,0,55.89,8.948a3.041,3.041,0,0,0-2.988.6A1,1,0,0,1,51.28,8.96a3.076,3.076,0,0,0-1.925-2.389,2.838,2.838,0,0,0-.967-.17,3.033,3.033,0,0,0-1.381.34A3.5,3.5,0,0,0,45.321,8.685Z"/><path d="M33,9.916c1.192-.532,5-2.47,5-5.541A2.313,2.313,0,0,0,35.76,2a2.207,2.207,0,0,0-1.9,1.115,1.039,1.039,0,0,1-1.72,0A2.207,2.207,0,0,0,30.24,2,2.313,2.313,0,0,0,28,4.375C28,7.446,31.808,9.384,33,9.916Z"/></svg>